<?xml version="1.0" encoding="UTF-8"?>
  <svg xmlns="http://www.w3.org/2000/svg" width="1200" height="1600" viewBox="0 0 1080 1440" fill="none">
    <defs>
      <linearGradient id="bg" x1="0" y1="0" x2="1" y2="1">
        <stop offset="0%" stop-color="#141410" />
        <stop offset="100%" stop-color="#d6c0a0" />
      </linearGradient>
      <linearGradient id="panel" x1="0" y1="0" x2="0" y2="1">
        <stop offset="0%" stop-color="rgba(255,255,255,0.72)" />
        <stop offset="100%" stop-color="rgba(255,255,255,0.28)" />
      </linearGradient>
    </defs>
    <rect width="1080" height="1440" rx="56" fill="url(#bg)" />
    <g opacity="0.16" stroke="#8a7557" stroke-width="3">
      <path d="M0 220h1080" />
      <path d="M0 420h1080" />
      <path d="M0 620h1080" />
      <path d="M0 820h1080" />
      <path d="M0 1020h1080" />
      <path d="M140 0v1440" />
      <path d="M360 0v1440" />
      <path d="M580 0v1440" />
      <path d="M800 0v1440" />
      <path d="M1000 0v1440" />
    </g>
    <circle cx="860" cy="230" r="180" fill="#ffffff" opacity="0.24" />
    <circle cx="226" cy="1170" r="160" fill="#8a7557" opacity="0.15" />
    <rect x="64" y="64" width="952" height="1312" rx="46" fill="url(#panel)" stroke="rgba(255,255,255,0.46)" />
    <text x="118" y="136" fill="#8a7557" font-size="26" font-family="Arial, sans-serif" letter-spacing="7">STORE 2 TEST LAB</text>
    <text x="118" y="186" fill="#8a7557" font-size="18" font-family="Arial, sans-serif" letter-spacing="4">COLECCION</text>
    <g transform="translate(0 28)">
      
        <path d="M350 286l110-66 48 44 48-44 110 66-42 94-56-22v352H392V358l-56 22z" fill="#f1ebdf" stroke="#8a7557" stroke-width="12" />
        <path d="M392 358c64 18 152 18 216 0v352H392z" fill="#d6c0a0" opacity="0.55" />
      
    </g>
    <rect x="118" y="1012" width="844" height="244" rx="34" fill="rgba(255,255,255,0.58)" stroke="rgba(255,255,255,0.48)" />
    <text x="154" y="1098" fill="#8a7557" font-size="26" font-family="Arial, sans-serif" letter-spacing="4">URBAN CATALOG ASSET</text>
    <text x="154" y="1166" fill="#8a7557" font-size="56" font-weight="700" font-family="Arial, sans-serif">Night Shift Detail</text>
    <text x="154" y="1218" fill="#8a7557" font-size="26" font-family="Arial, sans-serif">Vista completa</text>
    <text x="154" y="1270" fill="#8a7557" font-size="22" font-family="Arial, sans-serif" opacity="0.8">SKU S3005-REM-007 · test image</text>
  </svg>