<?xml version="1.0" encoding="UTF-8"?>
  <svg xmlns="http://www.w3.org/2000/svg" width="1200" height="1600" viewBox="0 0 800 1066" fill="none">
    <defs>
      <linearGradient id="bg" x1="0" y1="0" x2="1" y2="1">
        <stop offset="0%" stop-color="#161313" />
        <stop offset="55%" stop-color="#70534a" />
        <stop offset="100%" stop-color="#caa696" />
      </linearGradient>
      <linearGradient id="panel" x1="0" y1="0" x2="0" y2="1">
        <stop offset="0%" stop-color="rgba(255,255,255,0.14)" />
        <stop offset="100%" stop-color="rgba(255,255,255,0.02)" />
      </linearGradient>
    </defs>
    <rect width="800" height="1066" rx="44" fill="url(#bg)" />
    <g opacity="0.12" stroke="#f3eee7" stroke-width="2">
      <path d="M0 150h800" />
      <path d="M0 330h800" />
      <path d="M0 510h800" />
      <path d="M0 690h800" />
      <path d="M0 870h800" />
      <path d="M140 0v1066" />
      <path d="M320 0v1066" />
      <path d="M500 0v1066" />
      <path d="M680 0v1066" />
    </g>
    <circle cx="634" cy="186" r="132" fill="#ffffff" opacity="0.07" />
    <rect x="72" y="72" width="656" height="922" rx="36" fill="#0f0f0f" fill-opacity="0.22" stroke="rgba(255,255,255,0.14)" />
    <text x="92" y="118" fill="#f3eee7" font-size="22" font-family="Arial, sans-serif" letter-spacing="6">ASPHALT TEST LAB</text>
    <text x="92" y="902" fill="#f3eee7" font-size="48" font-weight="700" font-family="Arial, sans-serif">Remera Metro Rooftop Uniform</text>
    <text x="92" y="944" fill="rgba(243,238,231,0.82)" font-size="20" font-family="Arial, sans-serif">Rooftop Uniform</text>
    <text x="92" y="980" fill="rgba(243,238,231,0.72)" font-size="18" font-family="Arial, sans-serif">Remeras · boxy · Chocolate / Arena</text>
    <g transform="translate(0 80)">
      
        <path d="M290 180l72-38 38 44 38-44 72 38-32 74-42-16v228H332V238l-42 16z" fill="#f5ece3" />
        <path d="M332 238c48 12 92 12 134 0v228H332z" fill="#caa696" opacity="0.22" />
      
    </g>
    <rect x="92" y="130" width="170" height="38" rx="19" fill="#111111" fill-opacity="0.32" stroke="rgba(255,255,255,0.16)" />
    <text x="118" y="154" fill="#f3eee7" font-size="16" font-family="Arial, sans-serif" letter-spacing="3">URBAN TEST DROP</text>
  </svg>