<?xml version="1.0" encoding="UTF-8"?>
  <svg xmlns="http://www.w3.org/2000/svg" width="1200" height="1600" viewBox="0 0 1080 1440" fill="none">
    <defs>
      <linearGradient id="bg" x1="0" y1="0" x2="1" y2="1">
        <stop offset="0%" stop-color="#0f1717" />
        <stop offset="100%" stop-color="#97b5bb" />
      </linearGradient>
      <linearGradient id="panel" x1="0" y1="0" x2="0" y2="1">
        <stop offset="0%" stop-color="rgba(255,255,255,0.72)" />
        <stop offset="100%" stop-color="rgba(255,255,255,0.28)" />
      </linearGradient>
    </defs>
    <rect width="1080" height="1440" rx="56" fill="url(#bg)" />
    <g opacity="0.16" stroke="#43636b" stroke-width="3">
      <path d="M0 220h1080" />
      <path d="M0 420h1080" />
      <path d="M0 620h1080" />
      <path d="M0 820h1080" />
      <path d="M0 1020h1080" />
      <path d="M140 0v1440" />
      <path d="M360 0v1440" />
      <path d="M580 0v1440" />
      <path d="M800 0v1440" />
      <path d="M1000 0v1440" />
    </g>
    <circle cx="860" cy="230" r="180" fill="#ffffff" opacity="0.24" />
    <circle cx="226" cy="1170" r="160" fill="#43636b" opacity="0.15" />
    <rect x="64" y="64" width="952" height="1312" rx="46" fill="url(#panel)" stroke="rgba(255,255,255,0.46)" />
    <text x="118" y="136" fill="#43636b" font-size="26" font-family="Arial, sans-serif" letter-spacing="7">STORE 2 TEST LAB</text>
    <text x="118" y="186" fill="#43636b" font-size="18" font-family="Arial, sans-serif" letter-spacing="4">COLECCION</text>
    <g transform="translate(0 28)">
      
        <path d="M422 220h228l-24 144-28 182h-68l-22-122-22 122h-68l-28-182z" fill="#f0efe8" stroke="#43636b" stroke-width="12" />
        <path d="M500 220v120m72-120v120" stroke="#97b5bb" stroke-width="12" opacity="0.52" />
      
    </g>
    <rect x="118" y="1012" width="844" height="244" rx="34" fill="rgba(255,255,255,0.58)" stroke="rgba(255,255,255,0.48)" />
    <text x="154" y="1098" fill="#43636b" font-size="26" font-family="Arial, sans-serif" letter-spacing="4">ASPHALT CORE</text>
    <text x="154" y="1166" fill="#43636b" font-size="56" font-weight="700" font-family="Arial, sans-serif">Short Core Short Asphalt Core</text>
    <text x="154" y="1218" fill="#43636b" font-size="26" font-family="Arial, sans-serif">Vista completa</text>
    <text x="154" y="1270" fill="#43636b" font-size="22" font-family="Arial, sans-serif" opacity="0.8">Shorts · wide short · Azul petroleo / Gris humo</text>
  </svg>